<svg xmlns="http://www.w3.org/2000/svg" width="20.691" height="27.667" viewBox="0 0 20.691 27.667">
  <g id="Group_95" data-name="Group 95" transform="translate(-304 -902)">
    <g id="calendar-svgrepo-com" transform="translate(304 902)">
      <path id="Path_2" data-name="Path 2" d="M10.323,50.792h1.94c.179,0,.323-.242.323-.542V47.542c0-.3-.145-.542-.323-.542h-1.94c-.179,0-.323.242-.323.542V50.25C10,50.55,10.145,50.792,10.323,50.792Zm.323-2.708H11.94v1.625H10.647Z" transform="translate(-6.767 -27.314)" fill="#e6be7a"/>
      <path id="Path_3" data-name="Path 3" d="M22.323,50.792h1.94c.179,0,.323-.242.323-.542V47.542c0-.3-.145-.542-.323-.542h-1.94c-.179,0-.323.242-.323.542V50.25C22,50.55,22.145,50.792,22.323,50.792Zm.323-2.708H23.94v1.625H22.647Z" transform="translate(-14.887 -27.314)" fill="#e6be7a"/>
      <path id="Path_4" data-name="Path 4" d="M34.323,50.792h1.94c.179,0,.323-.242.323-.542V47.542c0-.3-.145-.542-.323-.542h-1.94c-.179,0-.323.242-.323.542V50.25C34,50.55,34.145,50.792,34.323,50.792Zm.323-2.708H35.94v1.625H34.647Z" transform="translate(-23.008 -27.314)" fill="#e6be7a"/>
      <path id="Path_5" data-name="Path 5" d="M10.323,39.792h1.94c.179,0,.323-.242.323-.542V36.542c0-.3-.145-.542-.323-.542h-1.94c-.179,0-.323.242-.323.542V39.25C10,39.55,10.145,39.792,10.323,39.792Zm.323-2.708H11.94v1.625H10.647Z" transform="translate(-6.767 -20.921)" fill="#e6be7a"/>
      <path id="Path_6" data-name="Path 6" d="M22.323,39.792h1.94c.179,0,.323-.242.323-.542V36.542c0-.3-.145-.542-.323-.542h-1.94c-.179,0-.323.242-.323.542V39.25C22,39.55,22.145,39.792,22.323,39.792Zm.323-2.708H23.94v1.625H22.647Z" transform="translate(-14.887 -20.921)" fill="#e6be7a"/>
      <path id="Path_7" data-name="Path 7" d="M34.323,39.792h1.94c.179,0,.323-.242.323-.542V36.542c0-.3-.145-.542-.323-.542h-1.94c-.179,0-.323.242-.323.542V39.25C34,39.55,34.145,39.792,34.323,39.792Zm.323-2.708H35.94v1.625H34.647Z" transform="translate(-23.008 -20.921)" fill="#e6be7a"/>
      <path id="Path_8" data-name="Path 8" d="M46.323,39.792h1.94c.179,0,.323-.242.323-.542V36.542c0-.3-.145-.542-.323-.542h-1.94c-.179,0-.323.242-.323.542V39.25C46,39.55,46.145,39.792,46.323,39.792Zm.323-2.708H47.94v1.625H46.647Z" transform="translate(-31.128 -20.921)" fill="#e6be7a"/>
      <path id="Path_9" data-name="Path 9" d="M10.323,28.792h1.94c.179,0,.323-.242.323-.542V25.542c0-.3-.145-.542-.323-.542h-1.94c-.179,0-.323.242-.323.542V28.25C10,28.55,10.145,28.792,10.323,28.792Zm.323-2.708H11.94v1.625H10.647Z" transform="translate(-6.767 -14.529)" fill="#e6be7a"/>
      <path id="Path_10" data-name="Path 10" d="M22.323,28.792h1.94c.179,0,.323-.242.323-.542V25.542c0-.3-.145-.542-.323-.542h-1.94c-.179,0-.323.242-.323.542V28.25C22,28.55,22.145,28.792,22.323,28.792Zm.323-2.708H23.94v1.625H22.647Z" transform="translate(-14.887 -14.529)" fill="#e6be7a"/>
      <path id="Path_11" data-name="Path 11" d="M34.323,28.792h1.94c.179,0,.323-.242.323-.542V25.542c0-.3-.145-.542-.323-.542h-1.94c-.179,0-.323.242-.323.542V28.25C34,28.55,34.145,28.792,34.323,28.792Zm.323-2.708H35.94v1.625H34.647Z" transform="translate(-23.008 -14.529)" fill="#e6be7a"/>
      <path id="Path_12" data-name="Path 12" d="M46.323,28.792h1.94c.179,0,.323-.242.323-.542V25.542c0-.3-.145-.542-.323-.542h-1.94c-.179,0-.323.242-.323.542V28.25C46,28.55,46.145,28.792,46.323,28.792Zm.323-2.708H47.94v1.625H46.647Z" transform="translate(-31.128 -14.529)" fill="#e6be7a"/>
      <path id="Path_13" data-name="Path 13" d="M19.4,1.729H17.135V1.3c0-.716-.434-1.3-.97-1.3s-.97.581-.97,1.3v.432H5.5V1.3C5.5.581,5.062,0,4.526,0s-.97.581-.97,1.3v.432H1.293C.578,1.729,0,2.5,0,3.458V25.938c0,.956.578,1.729,1.293,1.729H19.4c.715,0,1.293-.773,1.293-1.729V3.458C20.691,2.5,20.113,1.729,19.4,1.729ZM15.842,1.3c0-.239.145-.432.323-.432s.323.193.323.432V4.323c0,.239-.145.432-.323.432s-.323-.193-.323-.432V1.3ZM4.2,1.3c0-.239.145-.432.323-.432s.323.193.323.432V4.323c0,.239-.145.432-.323.432S4.2,4.562,4.2,4.323V1.3ZM20.044,25.938c0,.477-.29.865-.647.865H1.293c-.357,0-.647-.387-.647-.865V7.349h19.4Zm0-19.453H.647V3.458c0-.477.29-.865.647-.865H3.556V4.323c0,.716.434,1.3.97,1.3s.97-.581.97-1.3V2.594h9.7V4.323c0,.716.434,1.3.97,1.3s.97-.581.97-1.3V2.594H19.4c.357,0,.647.387.647.865Z" transform="translate(0)" fill="#e6be7a"/>
    </g>
  </g>
</svg>
