<svg xmlns="http://www.w3.org/2000/svg" width="25.337" height="25.337" viewBox="0 0 25.337 25.337">
  <path id="Icon_-_Facebook" data-name="Icon - Facebook" d="M12.62,25.337h0Zm.089,0h0Zm-.128,0h0Zm.169,0h0Zm-.206,0h0Zm.247,0h0Zm.041,0h0Zm-.335,0h0Zm.376,0h0Zm-.416,0h0Zm.457,0h0Zm-.494,0h0Zm-.046,0h0Zm.581,0h0Zm-.622,0h0Zm.663,0h0Zm.041,0h0Zm-.741,0h0Zm-.036,0h0Zm.817,0h0Zm.041,0h0Zm-.909,0h0Zm-.037,0h0Zm.987,0h0Zm-1.023,0h0Zm1.064,0h0Zm-1.115,0h0Zm1.155,0h0Zm-1.192,0h0Zm1.232,0h0Zm-1.268,0h0Zm1.309,0h0Zm.04,0h0Zm-1.382,0h0Zm1.422,0h0Zm-1.477,0h0Zm-.036,0h0Zm1.553,0h0Zm-1.587,0h0Zm1.627,0h0Zm.04,0h0Zm-1.72,0h0Zm-.036,0h0Zm1.8,0h0Zm-1.831,0h0Zm1.872,0h0Zm-1.92,0h0Zm1.96,0h0Zm.04,0h0Zm-2.037,0h0Zm-.036,0h0Zm2.113,0h0Zm-2.152,0h0Zm2.192,0h0Zm.04,0h0Zm-2.275,0h0Zm-.037,0h0Zm2.352,0h0Zm-3.154-.1a12.669,12.669,0,1,1,3.959,0V16.331H17.6l.562-3.662H14.648V10.292a1.831,1.831,0,0,1,2.065-1.978h1.6V5.2a19.481,19.481,0,0,0-2.836-.247c-2.894,0-4.785,1.754-4.785,4.929v2.791H7.473v3.662h3.217Z" transform="translate(0 0)" fill="#e6be7a" fill-rule="evenodd"/>
</svg>
