<svg xmlns="http://www.w3.org/2000/svg" width="25.337" height="25.337" viewBox="0 0 25.337 25.337">
  <path id="Icon_-_Linkedin" data-name="Icon - Linkedin" d="M12.669,0A12.669,12.669,0,1,1,0,12.669,12.675,12.675,0,0,1,12.669,0ZM8.708,19.788V9.895H5.419v9.893Zm11.858,0V14.115c0-3.039-1.623-4.453-3.786-4.453A3.266,3.266,0,0,0,13.816,11.3v-1.4H10.528c.044.928,0,9.893,0,9.893h3.288V14.263a2.248,2.248,0,0,1,.108-.8,1.8,1.8,0,0,1,1.687-1.2c1.189,0,1.666.908,1.666,2.237v5.293ZM7.086,5.124a1.714,1.714,0,1,0-.044,3.419h.021a1.715,1.715,0,1,0,.022-3.419Z" transform="translate(0 0)" fill="#e6be7a" fill-rule="evenodd"/>
</svg>
