<svg xmlns="http://www.w3.org/2000/svg" width="215.302" height="69.815" viewBox="0 0 215.302 69.815">
  <g id="Group_94" data-name="Group 94" transform="translate(2819.786 78.259)">
    <g id="logo" transform="translate(-2819.786 -78.259)">
      <path id="Path_30" data-name="Path 30" d="M244-91.748c0,5.932.363,10.412.726,9.927.847-.847.726-19.128-.121-19.976C244.242-102.16,244-97.68,244-91.748Z" transform="translate(-30.924 101.817)" fill="#cead51"/>
      <path id="Path_31" data-name="Path 31" d="M110.847-99.17c.726.242,1.211.969.969,1.453-.242.363.847,1.332,2.421,2.179,1.574.726,2.906.847,2.906.363,0-.605-.726-1.332-1.453-1.574-1.211-.484-1.09-.969.242-1.937,1.453-.969.847-1.332-2.421-1.211C111.21-99.9,110-99.533,110.847-99.17Z" transform="translate(-59.031 102.217)" fill="#cead51"/>
      <path id="Path_32" data-name="Path 32" d="M159.011-97.579c6.053,3.027,6.538,3.027,3.753,0A8.342,8.342,0,0,0,157.437-100C154.531-99.879,154.773-99.637,159.011-97.579Z" transform="translate(-49.567 102.2)" fill="#cead51"/>
      <path id="Path_33" data-name="Path 33" d="M122.163-96.5,119.5-94.316l2.785.121c1.695,0,2.663-.726,2.663-2.179.121-1.937.121-1.937,1.695,0,.847,1.211,2.058,2.179,2.542,2.179s.242-.726-.484-1.574c-.726-.969-1.09-1.937-.726-2.3C129.67-99.764,124.343-98.311,122.163-96.5Z" transform="translate(-57.151 102.448)" fill="#cead51"/>
      <path id="Path_34" data-name="Path 34" d="M69.627-96.184c-.484,1.332.121,1.816,2.179,1.816,1.574,0,2.785-.726,2.785-1.816A2.042,2.042,0,0,0,72.412-98,3.44,3.44,0,0,0,69.627-96.184Z" transform="translate(-67.69 102.621)" fill="#cead51"/>
      <path id="Path_35" data-name="Path 35" d="M106.5-94.266c-2.663,1.332-2.542,1.453,2.663,1.816,3.148.363,6.538.121,7.748-.363,1.332-.484.484-.847-2.421-.847-2.421-.121-4.6-.605-4.843-1.09C109.525-95.235,107.951-95.114,106.5-94.266Z" transform="translate(-60.251 103.246)" fill="#cead51"/>
      <path id="Path_36" data-name="Path 36" d="M162.362-93.717c-1.211.484.726.847,4.843.847,3.753.121,6.9-.121,6.9-.363C174.105-94.2,164.42-94.565,162.362-93.717Z" transform="translate(-48.197 103.423)" fill="#cead51"/>
      <path id="Path_37" data-name="Path 37" d="M205-93.8c0,.605,3.148,1.09,6.9,1.09s6.538-.242,6.3-.484C216.985-94.284,205-94.89,205-93.8Z" transform="translate(-39.14 103.385)" fill="#cead51"/>
      <path id="Path_38" data-name="Path 38" d="M133.1-93.395c.969.847,14.407,1.09,15.254.242.363-.484-2.906-.847-7.506-.847S132.86-93.758,133.1-93.395Z" transform="translate(-54.288 103.464)" fill="#cead51"/>
      <path id="Path_39" data-name="Path 39" d="M68-69.814v21.186h72.034c39.588,0,80.751.121,91.4.121s23.487-.121,28.45-.121h9.08V-91H68.121Zm62.954-17.312c-.121,4.964-4,8.232-9.806,8.232h-5.206l2.785-2.542c3.632-3.39,2.421-4.237-2.179-1.574l-3.632,2.058,4.358,5.327c4.479,5.569,6.3,6.416,5.932,3.269-.242-3.511,3.269-4.6,9.443-2.785,3.027.847,5.569,2.179,5.569,2.906S135.8-70.3,132.77-69.45c-9.2,2.421-8.354,7.627,1.574,9.443,3.269.605,4.6.242,6.659-1.816l2.542-2.542H140.4c-5.085,0-5.206-2.3-.484-6.3,3.753-3.148,4.358-4.237,4.237-8.6-.121-2.785-.363-4.116-.726-3.027-.726,2.663-2.3,2.785-3.269.363-.969-2.785-.484-3.511,3.148-3.874,3.269-.363,3.269-.242,3.632,7.143.242,4.6.969,7.627,1.937,7.99,1.09.363,1.453-1.574,1.453-7.264v-7.627l4.237-.121c2.785,0,4.237.484,4.237,1.574,0,1.211.726,1.211,3.148-.363,4.358-2.906,5.448-1.211,6.174,9.927.242,5.327.848,9.806,1.09,10.048.363.363,1.695-.484,3.027-1.937,2.058-2.058,2.3-2.906,1.211-4.964-1.816-3.39-1.695-5.448.363-4.722.969.363,2.542-.484,3.632-2.179,2.3-3.511,2.421-6.174.484-7.385-.847-.484-.969-.363-.484.484s.121,1.453-.969,1.453a1.889,1.889,0,0,0-1.937,1.816c0,2.3-.847,2.3-3.148.121-2.421-2.542-2.058-4.116,1.09-4.116a59.882,59.882,0,0,0,8.111-1.211c3.874-.847,6.659-.847,9.806.242,3.632,1.332,4.964,1.211,9.322-.605,5.206-2.3,6.417-1.453,3.874,2.542-.969,1.453-1.574,1.574-3.511.363-2.784-1.816-3.753,0-4.237,8.717l-.363,5.327,5.811-2.906c7.143-3.632,7.748-4.6,5.327-8.354-1.332-1.937-1.574-3.148-.726-3.753.726-.363,1.937.726,2.784,2.421l1.453,3.148,1.453-2.785c1.453-2.663,1.574-2.663,1.453,1.09-.121,2.179-.605,3.632-1.09,3.269-1.816-1.09-2.542,2.058-.726,3.511a16.911,16.911,0,0,1,3.148,3.874c1.09,1.937,1.332.605.605-6.416-.484-5.569-.242-8.717.484-8.717s1.574,1.695,2.058,3.632c.484,2.058,2.663,5.085,4.964,7.022,2.3,1.816,4.116,4,4.116,4.722,0,1.816.605,1.816,4.6.847,3.39-.969,3.511-2.663,0-3.148-3.269-.484-4-2.542-1.574-4.964,2.3-2.421,2.3-3.027-.242-2.785a1.956,1.956,0,0,1-2.179-1.695c0-1.09,1.09-1.816,3.027-1.816,2.179,0,3.027.605,3.027,2.421.121,3.148,4.237,9.443,4.237,6.416a3.872,3.872,0,0,1,.969-2.663c.484-.242.969,1.332.969,3.632,0,2.906-.484,4-1.574,3.632a1.86,1.86,0,0,0-2.3.605c-.363.726-1.937,1.695-3.39,2.3-2.421.968-2.421,1.09.484,1.09a8.134,8.134,0,0,1,4.479,1.453c.969.969,2.3.726,5.085-.605,4.237-2.179,5.085-5.569,1.332-5.569-1.937,0-2.421-.847-2.421-3.632,0-4,1.332-4.6,4.116-1.816,2.663,2.663,3.148,2.3,3.148-2.421,0-4.358.969-5.206,3.39-2.785,1.09,1.09,1.453.969,1.937-.363,1.574-5.327,2.058-6.053,3.148-5.327,2.179,1.332,1.332,4.843-1.453,6.053-2.906,1.332-4.722,7.869-2.179,7.869.726,0,.969-.484.605-1.211-1.09-1.695,1.574-6.053,3.632-6.053,1.937,0,10.291,4.964,10.291,6.053,0,.363-2.421,1.453-5.448,2.3-3.269.969-5.69,2.421-6.053,3.874-.484,1.332-2.785,3.148-5.085,4.116-2.421,1.09-4,2.3-3.511,2.785,1.574,1.453,4.964.969,5.811-.969.605-1.09.848-.363.605,1.816-.121,2.179-.969,3.753-2.058,3.753-.969.121-2.906.242-4.237.363-2.179.121-2.179.242-.242,2.179s2.542,1.937,7.143.363c4.964-1.816,7.627-4.843,4.116-4.843-2.421,0-3.511-1.937-2.542-4.843.969-3.269,4.116-3.027,5.327.242l.968,2.663,1.453-2.663c1.816-3.39,3.753-3.39,3.753,0-.121,3.148-8.6,11.017-13.923,13.075-4.116,1.574-9.08-1.211-9.08-4.964,0-1.453-.484-2.058-1.332-1.574-.726.363-.969,2.058-.484,3.753.484,2.179.242,2.906-.847,2.421-.847-.242-1.453-1.695-1.332-3.148.363-2.421-.121-2.542-4.843-1.816a76.529,76.529,0,0,0-12.107,3.027c-8.6,2.906-27.24,3.148-34.625.484-4.358-1.453-5.448-1.453-9.2,0-6.538,2.785-22.881,2.421-29.3-.726-5.932-2.906-12.107-2.663-20.823.605a38.241,38.241,0,0,1-14.528,1.816h-20.7c-12.833.242-18.4-.969-22.639-4.964-4.358-4.116-3.269-4.964,2.421-1.695a37.736,37.736,0,0,0,10.291,3.753c4.843.726,5.085.726,5.085-2.179s-.242-2.906-4.479-1.937c-5.811,1.332-8.838,1.332-8.838.121,0-.605,4.237-1.937,9.443-3.027,11.5-2.542,14.165-4.237,12.954-8.111-.726-2.058-1.09-2.3-1.937-1.09-.847,1.332-1.332,1.211-2.785-.726-1.816-2.3-1.816-2.179-1.937,2.058,0,6.3-1.937,5.811-2.179-.605-.121-2.785-.605-7.627-.969-10.9-.484-3.753-.242-5.69.605-5.69A1.532,1.532,0,0,1,91-84.462a3.137,3.137,0,0,0,1.332,2.542c.726.484,1.09.121.847-.726-.363-1.695.363-2.3,2.663-2.3.605,0,.847.726.484,1.695a1.864,1.864,0,0,0,1.211,2.3c1.09.484,1.937,1.332,1.937,2.058,0,1.574-4.479,1.574-5.448,0a1.334,1.334,0,0,0-1.816-.605c-1.332.847,0,5.448,1.695,5.569,3.39.242,5.932.969,7.143,2.179,2.3,2.3,3.269,1.453,2.542-2.3-.847-4.116,0-4.722,1.937-1.211,1.453,2.785-.242,7.264-2.785,7.264-.847,0-2.058,1.332-2.906,3.027-.726,1.816-.847,3.027-.242,3.027,1.332,0,9.564-8.6,9.564-10.048,0-1.574,3.753-.847,4.358.969.484.969,1.211,1.816,1.816,1.816,1.937,0,1.09-3.027-1.937-6.659-2.906-3.632-3.027-3.632-3.753-.969-.847,3.027-2.906,3.753-2.906,1.09,0-3.027,1.453-5.569,3.148-5.569.969,0,1.695-.605,1.695-1.211,0-1.816,11.986-7.264,16.1-7.264C130.228-89.789,130.954-89.184,130.954-87.126Zm-21.913,1.695a5.045,5.045,0,0,1-4.6,1.09c-3.027-.605-3.027-.605-.363.726,1.453.847,2.663,2.179,2.663,3.148,0,2.542-1.695,1.937-5.448-2.058-4.237-4.479-3.148-5.69,4.237-5.085C109.526-87.247,110.252-86.763,109.041-85.431Zm-32.567-1.09c-.121,1.211-3.148,5.206-3.874,5.206-.484,0-.484-4.722.121-5.811C73.085-87.852,76.475-87.247,76.475-86.521Zm147.337.121c1.937,1.211,1.695,8.717-.484,8.717-1.937,0-2.058-1.695-.242-4.964,1.09-2.058.847-2.421-.847-2.058a2.2,2.2,0,0,1-2.542-1.211C219.09-87.489,221.511-87.852,223.811-86.4Zm41.526,1.453c0,1.332-.847,2.421-1.816,2.421s-1.816-1.09-1.816-2.421.847-2.421,1.816-2.421S265.337-86.278,265.337-84.947ZM246.088-83.01c.726.969,1.211,1.695.969,1.816-4.358.726-7.264.726-7.748-.242C237.371-84.462,243.666-85.915,246.088-83.01ZM87.007-78.893l.242,4.237-1.453-4c-1.332-3.511-1.695-3.753-3.632-2.421-2.542,1.937-1.695,5.327,1.574,6.416a5.263,5.263,0,0,1,3.027,2.785c1.453,3.511,1.816,8.717.605,8.717-.726,0-1.211-.847-1.211-1.816,0-1.453-1.09-1.09-4.722,1.332-2.663,1.695-5.327,2.785-5.932,2.421s-1.453-3.874-1.937-7.869c-.605-5.448-.363-8.232.969-10.9,1.695-3.148,2.421-3.511,7.022-3.269C86.644-83.131,86.765-83.01,87.007-78.893Zm47.579-2.421c0,.605.847.847,1.816.484,2.179-.847,2.421.847.363,2.906-2.421,2.421-4.6,1.695-4.6-1.574,0-1.695.605-3.027,1.211-3.027A1.144,1.144,0,0,1,134.586-81.315Zm68.765.969c2.179-2.179,1.695.363-.605,2.906-2.906,3.148-4,2.663-4-1.816.121-3.39.242-3.632,1.695-1.816C201.656-79.5,202.262-79.257,203.351-80.346Zm63.317,9.322c.969-.484.484.242-.847,1.816-3.269,3.269-6.053,2.3-4-1.453.969-1.816,1.574-2.058,2.3-.969A1.909,1.909,0,0,0,266.669-71.024Zm.121,15.5a12.021,12.021,0,0,0-1.695,3.269c-.605,1.453-.847,1.453-1.574-.363a4.041,4.041,0,0,1,.605-3.874C265.821-58.554,268.485-57.586,266.79-55.528Z" transform="translate(-68 104.096)" fill="#cead51"/>
      <path id="Path_40" data-name="Path 40" d="M115.659-87.066c-3.148.969-3.39,1.937-1.211,4.358,1.211,1.332,1.937,1.09,3.632-1.211C121.471-88.155,121.107-88.519,115.659-87.066Z" transform="translate(-58.516 104.762)" fill="#cead51"/>
      <path id="Path_41" data-name="Path 41" d="M167.1-85.93c-2.906.847-2.906.847-.605,1.937a10.771,10.771,0,0,0,4,.726c1.937-.363,1.816.847-.363,3.148-1.695,1.695-2.179,1.574-4.237-.847-1.816-2.058-2.785-2.421-4-1.453-1.816,1.574-1.332,9.927.605,9.927.605,0,.726-1.09.363-2.421-.484-1.332-.242-2.421.484-2.421s1.332.847,1.332,1.816c0,2.421,1.211,2.3,3.027-.242a3.046,3.046,0,0,1,3.39-1.211c2.421.969,1.453,4.237-1.211,4-2.058-.121-4.964,3.511-3.632,4.843.363.484,2.421.121,4.358-.726,3.39-1.332,3.632-1.816,3.269-7.748-.363-6.3-1.574-10.533-3.027-10.291C170.493-86.777,168.8-86.414,167.1-85.93Z" transform="translate(-48.459 104.958)" fill="#cead51"/>
      <path id="Path_42" data-name="Path 42" d="M140.4-78.328c.363,4.479-.121,5.448-1.211,2.179-.969-2.906-.969-2.906-1.09.847-.121,2.058.484,4.237,1.09,4.6,2.421,1.453,4.358-1.574,3.874-6.053C142.461-81.355,140.04-82.808,140.4-78.328Z" transform="translate(-53.236 106.194)" fill="#cead51"/>
      <path id="Path_43" data-name="Path 43" d="M150.216-80.287c-1.453.484-.969,4.843.969,7.143,1.332,1.816,0,5.327-2.058,5.327a2.662,2.662,0,0,1-2.179-1.574c-.363-1.09-1.211-.847-2.784.847-2.3,2.179-2.179,2.179.484,1.332,3.027-.847,3.39,0,.969,2.542-1.574,1.453-2.058,1.211-4.237-1.816-1.816-2.542-3.269-3.39-4.964-2.906s-2.663-.121-3.39-1.937l-.968-2.663-2.179,2.421c-2.058,2.179-2.058,2.542-.363,2.542,3.027,0,3.511,2.058,1.453,5.327l-2.058,3.027,7.748-.484a53.947,53.947,0,0,0,12.47-2.179c4.722-1.695,4.722-1.695,4.358-7.506C153.122-77.866,152.032-80.892,150.216-80.287Z" transform="translate(-55.301 106.337)" fill="#cead51"/>
      <path id="Path_44" data-name="Path 44" d="M223-78.062c0,1.332.605,1.695,1.937,1.211a13.252,13.252,0,0,1,3.027-.726c.726,0,.847-.605.484-1.211C227.237-80.726,223-80.242,223-78.062Z" transform="translate(-35.348 106.412)" fill="#cead51"/>
      <path id="Path_45" data-name="Path 45" d="M192.421-72.894c0,3.874-.363,4.722-1.211,3.39-.969-1.574-1.211-1.453-1.211.242,0,2.906,2.3,2.663,6.416-.605l3.39-2.663-3.632-2.785L192.421-78.1Z" transform="translate(-42.3 106.813)" fill="#cead51"/>
      <path id="Path_46" data-name="Path 46" d="M157.728-76.232c-1.211,1.211-.847,5.206.484,5.206.605,0,1.574,1.695,2.179,3.874,1.332,5.206,3.269,5.448,3.511.484.121-2.663-.484-4.358-1.574-4.843a2.766,2.766,0,0,1-1.695-2.421C160.634-75.99,158.939-77.322,157.728-76.232Z" transform="translate(-49.254 107.125)" fill="#cead51"/>
      <path id="Path_47" data-name="Path 47" d="M184.61-76.333c-1.332,1.937-11.259,6.538-14.528,6.659-1.574,0-2.058.363-1.211.726a2.642,2.642,0,0,1,1.453,2.3c0,2.542,2.179,2.058,3.753-.969l1.332-2.542,2.179,2.663,2.058,2.784,6.174-2.663c6.78-2.906,8.111-4.843,3.39-4.843-2.179,0-3.027-.726-3.39-2.785C185.579-76.575,185.095-77.181,184.61-76.333Z" transform="translate(-46.838 107.105)" fill="#cead51"/>
      <path id="Path_48" data-name="Path 48" d="M218.741-74.011c-1.453,4.6-2.663,5.932-8.111,8.717-3.269,1.574-5.569,3.027-5.327,3.269.726.726,9.322-2.058,9.322-3.027,0-.484,1.332-1.574,2.906-2.421a8.38,8.38,0,0,0,3.511-4.479C221.647-75.464,219.71-77.159,218.741-74.011Z" transform="translate(-39.08 107.325)" fill="#cead51"/>
      <path id="Path_49" data-name="Path 49" d="M110.582-72.325c0,.969-1.09,1.816-2.421,1.816s-2.421-.605-2.421-1.211c0-.726-.969-1.211-2.058-1.211-1.574,0-1.695.363-.605,1.453,1.695,1.695,1.937,5.811.242,5.811-.605,0-.847.847-.484,1.816a3.764,3.764,0,0,1-.605,3.511c-.726.847-.969,1.937-.484,2.3,2.058,2.179,23.366-.484,23.366-2.906,0-.484-1.453-1.211-3.269-1.695-2.3-.484-3.753-.242-4.722,1.09-1.695,2.421-4.116,2.542-4.116.121a16.306,16.306,0,0,0-.121-2.663,1.651,1.651,0,0,1,1.211-1.332c.726-.242,1.332.484,1.332,1.695,0,1.695.363,1.816,1.453.726s.847-1.937-.847-3.874c-1.937-2.179-2.058-2.421-.242-1.695,3.39,1.332,2.3-1.211-1.574-3.39C111.187-73.657,110.582-73.778,110.582-72.325Zm-.726,7.385c1.453,5.811-1.695,5.327-3.511-.484-.484-1.937-.242-2.663.969-2.663C108.281-68.088,109.492-66.635,109.855-64.94Z" transform="translate(-60.945 107.818)" fill="#cead51"/>
      <path id="Path_50" data-name="Path 50" d="M198.289-68.627c-4.116,2.663-7.748,3.027-7.748.605,0-1.332-1.09-1.211-4.722.847-5.327,2.906-5.569,5.085-.363,3.148,4.843-1.937,12.47-1.937,16.344-.121,2.3,1.09,3.874,1.332,4.6.605.847-.847-.121-1.574-2.785-2.179-3.511-.726-3.632-.969-1.453-1.695,2.058-.605,2.3-.969,1.09-2.179C202.163-70.564,200.953-70.443,198.289-68.627Z" transform="translate(-44.052 108.478)" fill="#cead51"/>
      <path id="Path_51" data-name="Path 51" d="M157.506-67.853a15.8,15.8,0,0,0-3.874,5.569c-1.09,3.269-1.211,3.39-1.332.726-.121-2.179-.605-2.663-2.179-1.937a39.085,39.085,0,0,1-6.174,1.453c-6.416,1.09-5.569,2.542,2.058,3.39,7.748.847,20.7-1.09,20.7-3.269,0-.726-.969-.847-2.058-.363-5.206,2.058-8.838,2.784-8.838,1.695,0-.605,1.695-1.453,3.632-1.937,3.027-.605,3.511-1.09,2.906-3.269C161.138-69.79,160.291-70.153,157.506-67.853Z" transform="translate(-52.906 108.673)" fill="#cead51"/>
      <path id="Path_52" data-name="Path 52" d="M163.5-65.879c0,3.027,1.695,3.632,4,1.332,2.179-2.179,1.816-3.027-1.211-3.632C163.984-68.542,163.5-68.179,163.5-65.879Z" transform="translate(-47.882 108.878)" fill="#cead51"/>
      <path id="Path_53" data-name="Path 53" d="M95.869-65.844a10.294,10.294,0,0,1-5.085.242c-2.3-.484-2.785-.121-2.785,2.179.121,2.542.242,2.663,1.574.969,1.332-1.816,1.937-1.816,4.479-.363,2.107,1.138,6.8,1.6,6.8,1.6s3.656-1.573.1-3.783A5.359,5.359,0,0,0,95.869-65.844Z" transform="translate(-63.787 109.328)" fill="#cead51"/>
      <path id="Path_54" data-name="Path 54" d="M172.077-62.712c-1.09,2.179-.605,2.421,6.659,3.148,7.143.847,10.654.605,20.339-1.332,2.785-.605,3.148-.969,1.937-2.421a2.394,2.394,0,0,0-2.784-.847,12.741,12.741,0,0,1-4.964,1.211c-1.937.242-5.569.605-7.99,1.09-3.027.484-4.722.121-5.811-1.211C177.283-65.738,173.651-65.5,172.077-62.712Z" transform="translate(-46.168 109.585)" fill="#cead51"/>
      <path id="Path_55" data-name="Path 55" d="M74.726-80.308c-1.211,4.843-.847,7.264,1.09,6.416,1.332-.484,1.816.121,1.816,2.3s-.484,2.785-1.816,2.3c-1.09-.484-1.816,0-1.816,1.211,0,2.785,2.421,2.421,6.538-.847l3.511-2.906-3.874-2.785c-2.785-1.816-3.753-3.39-3.39-4.964.363-1.332.242-2.542-.363-2.906C75.937-82.85,75.211-81.881,74.726-80.308Z" transform="translate(-66.736 105.873)" fill="#cead51"/>
      <path id="Path_56" data-name="Path 56" d="M249.556-76.267q0,3.269-1.816,3.269c-1.695,0-1.937,1.937-1.695,12.712.121,7.264.726,13.075,1.453,13.559.726.363.847.121.363-.605-.484-.847-.363-1.453.242-1.453s1.453,1.453,1.816,3.269c.605,3.39-.726,5.206-3.874,5.206-1.332,0-1.211-.484.363-2.3,1.695-1.937,1.816-2.3.363-2.906-2.663-.969-6.053-.242-6.659,1.453-.363,1.211,0,1.211,2.179.121,3.148-1.695,4.6-.726,2.542,1.574-.847,1.09-3.511,1.574-7.385,1.453-5.69-.242-10.412-1.816-5.327-1.816,3.511,0,7.385-3.027,5.327-4.237a1.792,1.792,0,0,0-2.3.242c-.969,1.695-6.659,3.39-5.69,1.816a1.738,1.738,0,0,0-.605-2.179c-.969-.484-1.09-.363-.605.484.605.969-.242,1.453-2.179,1.453s-3.148.726-3.148,1.816.726,1.453,1.816,1.09c.969-.484,1.816-.121,1.816.605s-1.09,1.332-2.421,1.332c-1.937,0-2.421-.847-2.542-4,0-2.058-.363-3.148-.726-2.421a2.54,2.54,0,0,1-2.3,1.574,2.9,2.9,0,0,0-2.421,1.816c-.969,2.3-4.116,2.3-4.116,0,0-.969.605-1.695,1.332-1.574.726.242,1.695-.484,1.937-1.453.363-1.09.121-1.332-.484-.605-1.816,2.3-10.9,3.39-11.986,1.574-.484-.847-.363-.969.484-.484s1.453.242,1.453-.363c0-2.179-1.816-1.453-4.843,1.695-2.179,2.3-3.148,2.663-4.479,1.695a2.2,2.2,0,0,1-.726-2.663c.484-.726.121-.847-.726-.363a2.3,2.3,0,0,0-.848,2.663c.363.969,0,1.695-.847,1.574-3.632-.484-4.722.484-1.453,1.211,2.058.484,17.07.969,33.414,1.09l29.9.363v-3.269c0-2.179-.363-2.663-1.09-1.574-.605.969-1.09,1.453-1.211,1.09A21.712,21.712,0,0,0,251.251-46a2.883,2.883,0,0,1,1.332-3.269,2.733,2.733,0,0,0,1.816-2.179c0-1.09-.363-.969-1.211.242-.969,1.453-1.211,1.09-1.211-1.574,0-1.816-.605-3.269-1.332-3.269s-.969.969-.484,2.3a3.244,3.244,0,0,1-.484,3.148c-.726.363-1.574-.484-1.937-2.058-.847-3.753-.121-16.344.969-17.433.484-.484.847,0,.847,1.09s.484,2.058.969,2.058c1.09,0,.969-10.533-.121-11.743C249.919-79.051,249.556-77.961,249.556-76.267Zm-41.4,33.9c.726-.363,1.453,0,1.453.726,0,.605-2.179,1.09-4.843.969s-4.843-.484-4.843-.847c0-1.695,1.574-2.179,4.116-1.332A7.364,7.364,0,0,0,208.151-42.368Z" transform="translate(-42.534 106.675)" fill="#cead51"/>
      <path id="Path_57" data-name="Path 57" d="M248.507-51.573l-.242,9.927-9.322.484L229.5-40.8l9.443.242c6.9.121,9.564-.242,10.048-1.332.363-.969.363-5.69.121-10.654l-.363-8.959Z" transform="translate(-33.979 110.31)" fill="#cead51"/>
      <path id="Path_58" data-name="Path 58" d="M69-52.927c0,.726,3.148,1.09,7.748.847,7.022-.242,7.748-.121,6.78,1.695-.726,1.453-.605,2.058.726,2.058.847,0,1.695-.484,1.695-.969a7.349,7.349,0,0,1,.726-2.663c.484-1.332-1.211-1.695-8.475-1.937C72.632-54.017,69-53.654,69-52.927Z" transform="translate(-67.789 111.907)" fill="#cead51"/>
      <path id="Path_59" data-name="Path 59" d="M87.557-52.848c-.847,1.332-.484,1.453,6.659,1.453,9.322,0,11.259-.242,10.412-1.09C103.3-53.937,88.4-54.179,87.557-52.848Z" transform="translate(-63.949 111.948)" fill="#cead51"/>
      <path id="Path_60" data-name="Path 60" d="M105.841-52.547c-.726,2.179.363,7.022,1.574,7.022.605,0,1.09-.605,1.09-1.453,0-1.09.363-1.09,1.453,0a7.075,7.075,0,0,0,4.479,1.453c3.511,0,2.906-.969-1.211-1.695a31.667,31.667,0,0,1-3.511-.726,2.839,2.839,0,0,0-1.453-.242c-.363.121-1.09-.726-1.453-1.695-.484-1.332-.121-1.695,1.574-1.09,1.453.363,2.542,0,3.027-1.211.484-1.332-.121-1.816-2.179-1.816C107.536-54,106.083-53.395,105.841-52.547Z" transform="translate(-60.078 111.89)" fill="#cead51"/>
      <path id="Path_61" data-name="Path 61" d="M115.5-53.06c3.511.484,3.874.726,1.816,1.453-1.816.847-1.937,1.09-.484,1.09a4.856,4.856,0,0,0,3.511-1.695c1.332-1.574.847-1.816-3.753-1.574C111.5-53.665,111.5-53.665,115.5-53.06Z" transform="translate(-58.599 111.918)" fill="#cead51"/>
      <path id="Path_62" data-name="Path 62" d="M176.429-51.554c-.484.726.121,2.058,1.211,2.906,1.937,1.453,1.937,1.574-.121,2.058-1.211.363.605.605,3.874.726,4,0,5.448-.242,4.358-.969a4.253,4.253,0,0,0-3.39-.484c-.847.363-1.574,0-1.574-.726s-.847-1.332-1.937-1.332c-1.211,0-1.695-.726-1.211-1.816C178.366-53.37,177.64-53.612,176.429-51.554Z" transform="translate(-45.194 112.107)" fill="#cead51"/>
      <path id="Path_63" data-name="Path 63" d="M124.843-50.91c0,.605-1.09.847-2.421.484-1.453-.363-2.421,0-2.421.726,0,.847.605,1.09,1.453.605.847-.605,1.09-.242.726.847-.484,1.332.363,1.816,3.753,2.058,3.753.121,4,0,1.695-.969-1.816-.726-2.542-1.816-2.058-3.027.363-.969.363-1.816,0-1.816S124.843-51.516,124.843-50.91Z" transform="translate(-57.046 112.311)" fill="#cead51"/>
      <path id="Path_64" data-name="Path 64" d="M138.189-49.706c-1.695,3.39-1.574,3.753,1.574,3.632,1.453,0,2.058-.363,1.211-.605a1.906,1.906,0,0,1-.847-2.3c.605-1.332,1.211-1.211,3.269.605a9.084,9.084,0,0,0,6.78,2.3c3.874,0,4-.121,1.574-1.09a8.454,8.454,0,0,0-4.843-.363c-1.816.726-1.937.605-.242-1.453s1.574-2.179-.848-1.574c-1.574.484-3.148.242-3.511-.363C141.216-52.732,139.521-52.127,138.189-49.706Z" transform="translate(-53.443 112.317)" fill="#cead51"/>
      <path id="Path_65" data-name="Path 65" d="M157.124-49.874c.605,2.421.242,2.785-1.695,2.3-1.211-.363-2.663-.121-3.027.484S157.851-46,165.962-46c7.869,0,13.923-.363,13.559-.726s-2.421-.726-4.479-.726c-2.058-.121-3.753-.605-3.753-1.211a1.2,1.2,0,0,1,1.211-.969,1.213,1.213,0,0,0,1.211-1.211c0-.847-.847-.847-2.421,0-1.453.847-2.179,1.937-1.574,2.785.484.969.242.969-1.09-.121s-2.179-1.211-2.784-.242c-.363.605-2.058,1.211-3.753,1.211-1.816,0-2.784-.484-2.3-1.211a1.472,1.472,0,0,1,1.937-.605c.605.484,1.09-.121,1.09-1.332,0-1.695-.242-1.695-1.937-.363-1.574,1.211-2.058,1.211-3.148-.242C156.882-52.3,156.761-51.932,157.124-49.874Z" transform="translate(-50.223 112.364)" fill="#cead51"/>
      <path id="Path_66" data-name="Path 66" d="M116.1-45.395c.847.847,43.584.969,44.431.121.363-.363-9.564-.726-22.155-.726S115.859-45.758,116.1-45.395Z" transform="translate(-57.868 113.575)" fill="#cead51"/>
      <path id="Path_67" data-name="Path 67" d="M154-45.06c0,.484,1.937.969,4.237,1.09s4.237-.242,4.237-.726-1.937-.969-4.237-1.09C155.937-46.029,154-45.666,154-45.06Z" transform="translate(-49.884 113.604)" fill="#cead51"/>
      <path id="Path_68" data-name="Path 68" d="M175.546-44.237a81.764,81.764,0,0,0,10.9,0c2.785-.242.242-.363-5.811-.363C174.7-44.6,172.4-44.479,175.546-44.237Z" transform="translate(-45.642 113.87)" fill="#cead51"/>
      <path id="Path_69" data-name="Path 69" d="M219.976-44.216a36.359,36.359,0,0,0,7.264,0c1.816-.242,0-.484-4-.484S217.8-44.458,219.976-44.216Z" transform="translate(-36.199 113.849)" fill="#cead51"/>
    </g>
  </g>
</svg>
