<svg xmlns="http://www.w3.org/2000/svg" width="25.072" height="26.411" viewBox="0 0 25.072 26.411">
  <g id="Group_3" data-name="Group 3" transform="translate(-203.076 -1217.588)">
    <g id="magnifying-glass-svgrepo-com" transform="translate(203.076 1217.589)">
      <path id="Path_14" data-name="Path 14" d="M24.384,22.184l-4.178-4.4a11.945,11.945,0,0,0,1.732-6.229C21.938,5.173,17.027,0,10.969,0S0,5.173,0,11.555,4.911,23.11,10.969,23.11a10.515,10.515,0,0,0,5.913-1.825l4.178,4.4a2.267,2.267,0,0,0,3.324,0A2.57,2.57,0,0,0,24.384,22.184Zm-13.415.1A10.469,10.469,0,0,1,.784,11.555,10.469,10.469,0,0,1,10.969.825a10.469,10.469,0,0,1,10.186,10.73A10.469,10.469,0,0,1,10.969,22.285ZM23.83,25.1a1.511,1.511,0,0,1-2.216,0l-4.075-4.293a11.352,11.352,0,0,0,2.216-2.334l4.075,4.293A1.713,1.713,0,0,1,23.83,25.1Z" fill="#e6be7a"/>
      <path id="Path_15" data-name="Path 15" d="M13.4,4A9.663,9.663,0,0,0,4,13.9a9.663,9.663,0,0,0,9.4,9.9,9.663,9.663,0,0,0,9.4-9.9A9.663,9.663,0,0,0,13.4,4Zm0,18.983A8.858,8.858,0,0,1,4.784,13.9,8.858,8.858,0,0,1,13.4,4.825,8.858,8.858,0,0,1,22.021,13.9,8.858,8.858,0,0,1,13.4,22.983Z" transform="translate(-2.433 -2.349)" fill="#e6be7a"/>
      <path id="Path_16" data-name="Path 16" d="M27.392,11a.413.413,0,0,0,0,.825,6.04,6.04,0,0,1,5.876,6.19.392.392,0,1,0,.784,0A6.845,6.845,0,0,0,27.392,11Z" transform="translate(-16.423 -6.461)" fill="#e6be7a"/>
    </g>
  </g>
</svg>
