<svg xmlns="http://www.w3.org/2000/svg" width="65.108" height="65" viewBox="0 0 65.108 65"><g transform="translate(0.554 0.5)"><path d="M60,58a4,4,0,0,0-4-4H54V25h6a4,4,0,0,0,2.077-7.419l-28-17a4,4,0,0,0-4.153,0l-28,17A4,4,0,0,0,4,25h6V54H8a4,4,0,0,0-4,4,4,4,0,0,0-4,4v2H64V62A4,4,0,0,0,60,58Zm-8-4H48V25h4ZM18,25h4V54H18Zm6,0h4V54H24Zm6,0h4V54H30Zm6,0h4V54H36Zm6,0h4V54H42ZM4,23a2,2,0,0,1-1.038-3.709l28-17a2,2,0,0,1,2.077,0l28,17A2,2,0,0,1,60,23Zm8,2h4V54H12ZM8,56H56a2,2,0,0,1,2,2H6A2,2,0,0,1,8,56ZM2,62a2,2,0,0,1,2-2H60a2,2,0,0,1,2,2Z" fill="none" stroke="#e6be7a" stroke-width="1"/><path d="M32,9a5,5,0,1,0,5,5A5,5,0,0,0,32,9Zm0,8a3,3,0,1,1,3-3A3,3,0,0,1,32,17Z" fill="none" stroke="#e6be7a" stroke-width="1"/></g></svg>