<svg xmlns="http://www.w3.org/2000/svg" width="65" height="65" viewBox="0 0 65 65"><g transform="translate(0.5 0.5)"><path d="M60,6H53V4a4,4,0,0,0-4-4H15a4,4,0,0,0-4,4V6H4a4,4,0,0,0-4,4v8A11,11,0,0,0,11,29h.1A21,21,0,0,0,29,47.761V56H22a4,4,0,0,0-4,4v3a1,1,0,0,0,1,1H45a1,1,0,0,0,1-1V60a4,4,0,0,0-4-4H35V47.761A20.988,20.988,0,0,0,52.9,29H53A11,11,0,0,0,64,18V10A4,4,0,0,0,60,6ZM11,23a5,5,0,0,1-5-5V12h5ZM2,18V10A2,2,0,0,1,4,8h7v2H5a1,1,0,0,0-1,1v7a7,7,0,0,0,7,7v2A9,9,0,0,1,2,18ZM42,58a2,2,0,0,1,2,2v2H20V60a2,2,0,0,1,2-2ZM31,56V47.948c.334.016.662.052,1,.052s.666-.036,1-.052V56ZM51,27a19,19,0,0,1-38,0V4a2,2,0,0,1,2-2H49a2,2,0,0,1,2,2Zm2-15h5v6a5,5,0,0,1-5,5Zm9,6a9,9,0,0,1-9,9V25a7,7,0,0,0,7-7V11a1,1,0,0,0-1-1H53V8h7a2,2,0,0,1,2,2Z" fill="none" stroke="#e6be7a" stroke-width="1"/><path d="M39.147,19.36,34.838,18.7,32.9,14.579a1,1,0,0,0-1.81,0L29.156,18.7l-4.309.658a1,1,0,0,0-.565,1.687l3.146,3.227-.745,4.564a1,1,0,0,0,1.472,1.038L32,27.753l3.841,2.123a1.018,1.018,0,0,0,.486.124,1,1,0,0,0,.987-1.163l-.745-4.564,3.146-3.227a1,1,0,0,0-.564-1.686Zm-4.366,3.878a1,1,0,0,0-.271.859L35,27.126l-2.522-1.4a1,1,0,0,0-.968,0l-2.522,1.4.5-3.029a1,1,0,0,0-.271-.859l-2.141-2.193,2.913-.446a1,1,0,0,0,.754-.563L32,17.358l1.257,2.678a1,1,0,0,0,.754.563l2.913.446Z" fill="none" stroke="#e6be7a" stroke-width="1"/></g></svg>