<svg xmlns="http://www.w3.org/2000/svg" width="22.618" height="22.618" viewBox="0 0 22.618 22.618"><path d="M15.989,4.95l.531-.53h0Zm3.082,3.085-.531.53ZM8.738,19.429l-.531.53ZM4.622,15.308l.531-.53Zm12.945-.314-.264-.7Zm-1.917.72.264.7h0ZM8.332,8.382l-.7-.258Zm.694-1.9.7.258h0ZM5.845,10.674l.2.723ZM7.3,10.135l-.438-.609h0Zm.374-.345.571.486h0Zm6.575,6.59.491.567h0Zm-.87,1.821-.723-.2h0Zm.536-1.455-.609-.437h0Zm-11.2-3.991-.75,0h0Zm.212-.8-.65-.374h0Zm8.375,9.391v-.75h0Zm.788-.208-.372-.651h0Zm-.4-19.1.161.732ZM1.469,21.47a.75.75,0,0,0,1.061,1.06Zm5.714-3.6a.75.75,0,1,0-1.061-1.06ZM15.459,5.48l3.082,3.085L19.6,7.506,16.52,4.42ZM9.269,18.9,5.152,14.778l-1.061,1.06,4.117,4.121ZM17.3,14.292l-1.917.72.528,1.4,1.917-.72ZM9.036,8.64l.694-1.9L8.322,6.228l-.694,1.9ZM6.044,11.4a5.219,5.219,0,0,0,1.7-.653L6.863,9.526a4.1,4.1,0,0,1-1.218.424ZM7.628,8.124A4.115,4.115,0,0,1,7.1,9.3l1.142.973a5.226,5.226,0,0,0,.79-1.637Zm.112,2.62a2.865,2.865,0,0,0,.507-.467L7.1,9.3a1.365,1.365,0,0,1-.242.223Zm7.646,4.269a5.216,5.216,0,0,0-1.626.8l.982,1.134a4.1,4.1,0,0,1,1.172-.531ZM14.1,18.4a4.11,4.11,0,0,1,.423-1.216l-1.219-.874A5.227,5.227,0,0,0,12.657,18Zm-.344-2.587a2.866,2.866,0,0,0-.453.5l1.219.874a1.363,1.363,0,0,1,.216-.236ZM5.152,14.778c-.646-.647-1.084-1.087-1.369-1.444s-.315-.514-.315-.583l-1.5.01a2.464,2.464,0,0,0,.642,1.508,21.254,21.254,0,0,0,1.481,1.57ZM5.646,9.95a21.214,21.214,0,0,0-2.063.633,2.461,2.461,0,0,0-1.3.994l1.3.749c.035-.06.137-.18.561-.351s1.022-.336,1.9-.579Zm-2.177,2.8a.839.839,0,0,1,.112-.424l-1.3-.749a2.339,2.339,0,0,0-.312,1.182Zm4.739,7.209a21.25,21.25,0,0,0,1.579,1.491,2.459,2.459,0,0,0,1.518.642l0-1.5c-.069,0-.225-.029-.585-.316s-.8-.727-1.452-1.378ZM12.657,18c-.244.888-.411,1.49-.582,1.917s-.293.53-.354.564l.743,1.3a2.461,2.461,0,0,0,1-1.309A21.275,21.275,0,0,0,14.1,18.4ZM11.3,22.093a2.335,2.335,0,0,0,1.161-.307l-.743-1.3a.835.835,0,0,1-.415.11ZM18.541,8.566a25.728,25.728,0,0,1,2.251,2.413c.444.6.495.917.44,1.168l1.466.317a2.9,2.9,0,0,0-.7-2.378A26.781,26.781,0,0,0,19.6,7.506Zm-.71,7.131a26.755,26.755,0,0,0,3.246-1.358A2.893,2.893,0,0,0,22.7,12.463l-1.466-.317c-.054.25-.232.519-.883.88A25.705,25.705,0,0,1,17.3,14.292ZM16.52,4.42a26.961,26.961,0,0,0-2.6-2.414,2.892,2.892,0,0,0-2.389-.7l.323,1.465c.25-.055.569-.005,1.172.442a25.934,25.934,0,0,1,2.428,2.27ZM9.731,6.744a25.959,25.959,0,0,1,1.25-3.081c.359-.66.628-.84.878-.895L11.536,1.3A2.894,2.894,0,0,0,9.664,2.946,26.992,26.992,0,0,0,8.322,6.228ZM2.531,22.53l4.653-4.658-1.061-1.06L1.469,21.47Z" transform="translate(-0.674 -0.708)" fill="#e6be7a" stroke="#e6be7a" stroke-width="1"/></svg>