<svg xmlns="http://www.w3.org/2000/svg" width="24" height="24" viewBox="0 0 24 24"><g transform="translate(-0.5 0.5)"><path d="M19,1a1,1,0,0,1,2,0v.586L22.271.315a1,1,0,0,1,1.414,1.414L22.414,3H23a1,1,0,0,1,0,2H20.414L12.7,12.712A1,1,0,0,1,11.288,11.3L19,3.586Z" fill="none" stroke="#e6be7a" stroke-width="1"/><path d="M17.392,3.789a.922.922,0,0,0-.174-1.475,10.994,10.994,0,1,0,4.473,4.477.922.922,0,0,0-1.475-.175l-.03.03a1.08,1.08,0,0,0-.17,1.258A8.995,8.995,0,1,1,16.1,3.988a1.081,1.081,0,0,0,1.259-.169Z" fill="none" stroke="#e6be7a" stroke-width="1"/><path d="M14.39,6.792a.868.868,0,0,0-.284-1.469A6.992,6.992,0,1,0,18.681,9.9a.867.867,0,0,0-1.469-.285l-.092.092a1.14,1.14,0,0,0-.265,1.086A4.994,4.994,0,1,1,13.21,7.147,1.14,1.14,0,0,0,14.3,6.883Z" fill="none" stroke="#e6be7a" stroke-width="1"/><path d="M11.078,9.151c.409-.137.615.337.31.642l-.806.806a2,2,0,1,0,2.825,2.825l.8-.8c.306-.306.779-.1.64.311A3.035,3.035,0,0,1,12,15a3,3,0,0,1-3-3A3.035,3.035,0,0,1,11.078,9.151Z" fill="none" stroke="#e6be7a" stroke-width="1"/></g></svg>