<svg xmlns="http://www.w3.org/2000/svg" width="57.432" height="50.017" viewBox="0 0 57.432 50.017"><g transform="translate(0.422 -54.575)"><path d="M34.727,100.369H.45a.348.348,0,0,1-.263-.127.473.473,0,0,1-.109-.307V95.194c0-3.056,1.353-4.226,3.849-5.315a26.634,26.634,0,0,0,5.644-3.324.332.332,0,0,1,.277-.08.368.368,0,0,1,.244.173.484.484,0,0,1-.08.607,27.45,27.45,0,0,1-5.824,3.436c-2.28,1-3.365,1.922-3.365,4.5V99.5H34.354V94.325a.377.377,0,1,1,.745,0v5.61a.473.473,0,0,1-.109.307.347.347,0,0,1-.263.127ZM16.092,87.913a.331.331,0,0,1-.113-.02c-3.841-1.423-9.2-8.009-9.2-15.5a.407.407,0,0,1,.372-.434.348.348,0,0,1,.263.127.473.473,0,0,1,.109.307c0,7.1,5.055,13.329,8.679,14.672a.393.393,0,0,1,.218.214.5.5,0,0,1,.024.331A.383.383,0,0,1,16.092,87.913ZM7.155,71.685a.4.4,0,0,1-.371-.394c-.408-5.081.649-9.057,3.143-11.816,5.212-5.768,14.755-4.209,15.157-4.14a.337.337,0,0,1,.418.11.492.492,0,0,1,.053.5.36.36,0,0,1-.383.225,2.6,2.6,0,0,0-1.383,1.505,5.023,5.023,0,0,0,.011,2.792,4.165,4.165,0,0,1,2.854,1.166c1.141,1.1,1.793,2.87,1.937,5.267a.418.418,0,0,1-.345.463.338.338,0,0,1-.271-.1.461.461,0,0,1-.127-.3A6.875,6.875,0,0,0,26.18,62.3a3.363,3.363,0,0,0-2.595-.955.361.361,0,0,1-.389-.264,6.275,6.275,0,0,1-.1-3.741,3.413,3.413,0,0,1,.786-1.271c-2.648-.23-9.5-.336-13.45,4.039-2.053,2.273-3.056,5.462-2.991,9.5l1.609-3.741a.355.355,0,0,1,.449-.218,27.047,27.047,0,0,0,8.043,1.639,27.74,27.74,0,0,0,8.114-1.639.355.355,0,0,1,.447.219l.373.867a.471.471,0,0,1-.166.583.351.351,0,0,1-.5-.193l-.231-.538a27.246,27.246,0,0,1-8.037,1.571,26.594,26.594,0,0,1-7.968-1.57L7.488,71.445a.371.371,0,0,1-.333.24ZM10.133,85.6a.407.407,0,0,1-.372-.434V84.3a.377.377,0,1,1,.745,0v.869a.407.407,0,0,1-.372.434Z" transform="translate(0)" fill="none" stroke="#e6be7a" stroke-width="1"/><path d="M214.381,606.936a.371.371,0,0,1-.245-.092l-5.959-5.214a.372.372,0,0,1,.49-.561l5.959,5.214a.373.373,0,0,1-.245.653Z" transform="translate(-196.217 -515.985)" fill="none" stroke="#e6be7a" stroke-width="1"/><path d="M336.411,699.092a.372.372,0,0,1-.258-.641l.745-.714a.372.372,0,0,1,.515.537l-.745.714A.368.368,0,0,1,336.411,699.092Zm1.512,5.214a.375.375,0,0,1-.376-.372.369.369,0,0,1,.368-.372h.008a.372.372,0,0,1,0,.745Zm0-2.235a.375.375,0,0,1-.376-.372.369.369,0,0,1,.368-.372h.008a.372.372,0,1,1,0,.745Z" transform="translate(-317.3 -606.171)" fill="none" stroke="#e6be7a" stroke-width="1"/><path d="M363.593,320.114a11.545,11.545,0,1,1,8.163-3.381A11.475,11.475,0,0,1,363.593,320.114Zm0-22.345a10.8,10.8,0,1,0,7.637,3.164A10.731,10.731,0,0,0,363.593,297.769Z" transform="translate(-329.74 -226.932)" fill="none" stroke="#e6be7a" stroke-width="1"/><path d="M394.181,349.154a10.055,10.055,0,1,1,7.11-2.944A9.993,9.993,0,0,1,394.181,349.154Zm0-19.365a9.31,9.31,0,1,0,6.584,2.727A9.252,9.252,0,0,0,394.181,329.789Zm9.744,20.479a.371.371,0,0,1-.263-.109l-1.618-1.618a.372.372,0,1,1,.527-.527l1.618,1.618a.372.372,0,0,1-.263.636Zm1.053-1.053a.371.371,0,0,1-.263-.109l-1.618-1.618a.372.372,0,1,1,.527-.527l1.618,1.618a.372.372,0,0,1-.263.636Z" transform="translate(-360.246 -257.337)" fill="none" stroke="#e6be7a" stroke-width="1"/><path d="M790.344,737.819a.372.372,0,0,1-.263-.636l2.107-2.107a.372.372,0,1,1,.527.527l-2.107,2.106A.371.371,0,0,1,790.344,737.819Z" transform="translate(-745.926 -643.075)" fill="none" stroke="#e6be7a" stroke-width="1"/><path d="M797.954,745.424a.371.371,0,0,1-.263-.109l-7.606-7.606a.372.372,0,0,1,.527-.527l7.606,7.606a.372.372,0,0,1-.263.636Zm2.106-2.107a.372.372,0,0,1-.263-.109l-7.606-7.606a.372.372,0,1,1,.527-.527l7.605,7.606a.372.372,0,0,1-.263.636Z" transform="translate(-744.357 -641.767)" fill="none" stroke="#e6be7a" stroke-width="1"/><path d="M954.753,944.738a1.856,1.856,0,0,1-1.316-.544.372.372,0,1,1,.527-.527,1.119,1.119,0,0,0,1.58,0,.373.373,0,0,1,.527.527A1.861,1.861,0,0,1,954.753,944.738Z" transform="translate(-900.104 -840.646)" fill="none" stroke="#e6be7a" stroke-width="1"/><path d="M998.94,901.175a.372.372,0,0,1-.263-.636,1.118,1.118,0,0,0,0-1.58.372.372,0,0,1,.527-.527,1.864,1.864,0,0,1,0,2.633A.37.37,0,0,1,998.94,901.175Z" transform="translate(-943.238 -797.518)" fill="none" stroke="#e6be7a" stroke-width="1"/><path d="M432.392,385.21a.372.372,0,0,1-.372-.372,7.831,7.831,0,0,1,7.822-7.822.372.372,0,0,1,0,.745,7.085,7.085,0,0,0-7.077,7.077.372.372,0,0,1-.372.372Z" transform="translate(-407.367 -304.12)" fill="none" stroke="#e6be7a" stroke-width="1"/></g></svg>