<svg xmlns="http://www.w3.org/2000/svg" width="65" height="49" viewBox="0 0 65 49"><path d="M60,8H4a4,4,0,0,0-4,4V52a4,4,0,0,0,4,4H60a4,4,0,0,0,4-4V12A4,4,0,0,0,60,8ZM4,10H60a2,2,0,0,1,2,2v2.469L32,36.754,2,14.469V12A2,2,0,0,1,4,10ZM60,54H4a2,2,0,0,1-2-2V49.192L20.584,35.811a1,1,0,0,0-1.168-1.624L2,46.729V16.961L31.4,38.8a1,1,0,0,0,1.194,0L62,16.961V46.729L44.584,34.189a1,1,0,0,0-1.168,1.624L62,49.192V52A2,2,0,0,1,60,54Z" transform="translate(0.5 -7.5)" fill="#e6be7a" stroke="#e6be7a" stroke-width="1"/></svg>