<svg xmlns="http://www.w3.org/2000/svg" width="21.5" height="19.5" viewBox="0 0 21.5 19.5"><g transform="translate(-1.25 -3.22)"><path d="M12.7,17.11v1.11a.67.67,0,0,1-1.34,0V17.08a3.389,3.389,0,0,1-2.22-1.39.7.7,0,0,1-.15-.42.64.64,0,0,1,.67-.63.61.61,0,0,1,.45.2,2.82,2.82,0,0,0,1.25.92V13.21c-1.33-.52-2-1.3-2-2.31a2.27,2.27,0,0,1,2-2.17V7.63a.67.67,0,0,1,1.34,0V8.72a2.8,2.8,0,0,1,1.86,1.16.68.68,0,0,1,.16.4.65.65,0,0,1-.64.67.631.631,0,0,1-.47-.23,2.119,2.119,0,0,0-.91-.66v2.25l.25.1c1.27.5,2.06,1.22,2.06,2.36a2.4,2.4,0,0,1-2.31,2.34Zm-1.34-5.38V10.1a.82.82,0,0,0-.54.79.9.9,0,0,0,.54.84Zm2.19,3.07c0-.48-.33-.77-.85-1v2a1,1,0,0,0,.85-1Z" fill="none" stroke="#e6be7a" stroke-width="1"/><path d="M18,3.97H6a4,4,0,0,0-4,4v10a4,4,0,0,0,4,4H18a4,4,0,0,0,4-4v-10a4,4,0,0,0-4-4Z" fill="none" stroke="#e6be7a" stroke-linecap="round" stroke-linejoin="round" stroke-width="1.5"/></g></svg>