<svg xmlns="http://www.w3.org/2000/svg" width="97.395" height="82.343" viewBox="0 0 97.395 82.343"><g transform="translate(0 -39.564)"><path d="M0,130.123v53.1a6.642,6.642,0,0,0,6.646,6.64h8.3v-66.38h-8.3A6.638,6.638,0,0,0,0,130.123Z" transform="translate(0 -67.956)" fill="#e6be7a"/><path d="M441.766,123.483h-8.3v66.38h8.3a6.641,6.641,0,0,0,6.64-6.64v-53.1A6.637,6.637,0,0,0,441.766,123.483Z" transform="translate(-351.011 -67.956)" fill="#e6be7a"/><path d="M177.363,188.813a1.665,1.665,0,1,0,2.355,0A1.665,1.665,0,0,0,177.363,188.813Z" transform="translate(-143.229 -120.464)" fill="#e6be7a"/><path d="M159.313,44.985a5.43,5.43,0,0,0-5.421-5.421H127.278a5.426,5.426,0,0,0-5.421,5.421V55.527h-8.387v66.38H167.7V55.527h-8.388V44.985ZM146.2,80.309l-8.221,8.221a2.223,2.223,0,0,1-3.142,0L122.1,75.79a2.227,2.227,0,0,1-.651-1.571V66a2.222,2.222,0,0,1,2.222-2.22h8.221a2.222,2.222,0,0,1,1.572.651L146.2,77.167A2.224,2.224,0,0,1,146.2,80.309Zm6.474-24.781H128.5V46.207h24.174Z" transform="translate(-91.884)" fill="#e6be7a"/></g></svg>